<svg xmlns="http://www.w3.org/2000/svg" viewBox="0 0 93.12 77.96"><defs><style>.cls-1{fill:#f9b233;}.cls-2{fill:#1d1d1b;}</style></defs><g id="Calque_2" data-name="Calque 2"><g id="Calque_1-2" data-name="Calque 1"><path class="cls-1" d="M29,13.64h0a0,0,0,0,1,0,0v0A19.68,19.68,0,0,1,9.31,33.32h0a0,0,0,0,1,0,0v0A19.68,19.68,0,0,1,29,13.64Z" transform="translate(-4.33 42.62) rotate(-90)"/><path class="cls-1" d="M9.31,45.54h0A19.68,19.68,0,0,1,29,65.22v0a0,0,0,0,1,0,0h0A19.68,19.68,0,0,1,9.31,45.54v0A0,0,0,0,1,9.31,45.54Z" transform="translate(74.53 36.24) rotate(90)"/><path class="cls-1" d="M4.08,29.41h0A19.68,19.68,0,0,1,23.76,49.09v0a0,0,0,0,1,0,0h0A19.68,19.68,0,0,1,4.08,29.41v0A0,0,0,0,1,4.08,29.41Z" transform="translate(51.51 57.16) rotate(135)"/><path class="cls-1" d="M25.59,6.67h0A19.68,19.68,0,0,1,45.27,26.36v0a0,0,0,0,1,0,0h0A19.68,19.68,0,0,1,25.59,6.67v0A0,0,0,0,1,25.59,6.67Z" transform="translate(48.8 53.24) rotate(-135)"/><path class="cls-1" d="M25.59,52.32h0A19.68,19.68,0,0,1,45.27,72v0a0,0,0,0,1,0,0h0A19.68,19.68,0,0,1,25.59,52.32v0A0,0,0,0,1,25.59,52.32Z" transform="translate(16.53 131.16) rotate(-135)"/><path class="cls-1" d="M36.34,46.53a7.54,7.54,0,0,1-3.24-.74,7.05,7.05,0,1,1,6.09-12.72,6.93,6.93,0,0,1,3.4,9.4l0,.07A6.8,6.8,0,0,1,36.34,46.53ZM36,36.86a2.33,2.33,0,0,0-2.15,1.49,2.43,2.43,0,0,0,1.26,3.35,2.52,2.52,0,1,0,2.17-4.54A2.94,2.94,0,0,0,36,36.86Z"/><path class="cls-2" d="M90,11.44a21.33,21.33,0,0,0-9.31-8.35A33.92,33.92,0,0,0,65.52,0L38.64,0s0,0,0,0C44.31,5.76,46.17,14.91,44,22.7a12.83,12.83,0,0,0,1.42,10.86,9.67,9.67,0,0,1,.43,10.36c-2.09,3.6-3.18,7.77-2.05,11.77C46,63.36,44.29,72.3,38.74,78H51.39V46.33H65.52q9.65,0,15.82-3.31a21,21,0,0,0,9-8.58,23.68,23.68,0,0,0,2.8-11.22A22.87,22.87,0,0,0,90,11.44ZM76.41,32.58q-3.6,3.31-10.89,3.31H51.39V10.43H65.52Q80,10.43,80,23.22,80,29.28,76.41,32.58Z"/></g></g></svg>